# xmcd CD database file
#
# Track frame offsets:
#	150
#	34390
#	78198
#	107206
#	162063
#	205541
#	236173
#
# Disc length: 3634 seconds
#
# Revision: 0
# Processed by: cddbd v1.5.2PL0 Copyright (c) Steve Scherf et al.
# Submitted via: CDex 1.70beta2
#
DISCID=500e3007
DTITLE=Gijs Hendriks Quartet - Some Feeling
DYEAR=1900
DGENRE=Jazz
TTITLE0=T.S.P
TTITLE1=Bes-Boel
TTITLE2=Stompin' On No. 3
TTITLE3=Intro Met Waltz Vier Tegen Drie
TTITLE4=Oriental Blue
TTITLE5=Born Again"
TTITLE6=Backstreet Shuffle
EXTD=
EXTT0=
EXTT1=
EXTT2=
EXTT3=
EXTT4=
EXTT5=
EXTT6=
PLAYORDER=
